HIERARCHY
ROOT hip
{
	OFFSET 0.000000 0.000000 0.000000 
	CHANNELS 6 Xposition Yposition Zposition Xrotation Zrotation Yrotation
	JOINT abdomen
	{
		OFFSET 0.000000 3.402643 0.000000 
		CHANNELS 3 Xrotation Zrotation Yrotation
		JOINT chest
		{
			OFFSET 0.000000 8.438565 -0.680529 
			CHANNELS 3 Xrotation Zrotation Yrotation
			JOINT neck
			{
				OFFSET 0.000000 10.207942 -0.272212 
				CHANNELS 3 Xrotation Zrotation Yrotation
				JOINT head
				{
					OFFSET 0.000000 3.130431 0.000000 
					CHANNELS 3 Xrotation Zrotation Yrotation
					End Site
					{
						OFFSET 0.000000 3.130435 0.000000 
					}
				}
			}
			JOINT lCollar
			{
				OFFSET 3.470700 6.669187 -0.816635 
				CHANNELS 3 Yrotation Zrotation Xrotation
				JOINT lShldr
				{
					OFFSET 3.198488 0.000000 0.000000 
					CHANNELS 3 Zrotation Yrotation Xrotation
					JOINT lForeArm
					{
						OFFSET 10.139888 0.000000 0.000000 
						CHANNELS 3 Yrotation Zrotation Xrotation
						JOINT lHand
						{
							OFFSET 8.370511 0.000000 0.000000 
							CHANNELS 3 Zrotation Yrotation Xrotation
							End Site
							{
								OFFSET 4.083176 0.000000 0.000000 
							}
						}
					}
				}
			}
			JOINT rCollar
			{
				OFFSET -3.470700 6.669187 -0.816635 
				CHANNELS 3 Yrotation Zrotation Xrotation
				JOINT rShldr
				{
					OFFSET -3.198488 0.000000 0.000000 
					CHANNELS 3 Zrotation Yrotation Xrotation
					JOINT rForeArm
					{
						OFFSET -10.139888 0.000000 0.000000 
						CHANNELS 3 Yrotation Zrotation Xrotation
						JOINT rHand
						{
							OFFSET -8.370511 0.000000 0.000000 
							CHANNELS 3 Zrotation Yrotation Xrotation
							End Site
							{
								OFFSET -4.083176 0.000000 0.000000 
							}
						}
					}
				}
			}
		}
	}
	JOINT lThigh
	{
		OFFSET 5.308129 -1.633274 1.361059 
		CHANNELS 3 Xrotation Zrotation Yrotation
		JOINT lShin
		{
			OFFSET -2.041588 -20.007561 0.000000 
			CHANNELS 3 Xrotation Zrotation Yrotation
			JOINT lFoot
			{
				OFFSET 0.000000 -19.190928 -1.224953 
				CHANNELS 3 Xrotation Yrotation Zrotation
				End Site
				{
					OFFSET 0.000000 -2.449906 4.627600 
				}
			}
		}
	}
	JOINT rThigh
	{
		OFFSET -5.308129 -1.633274 1.361059 
		CHANNELS 3 Xrotation Zrotation Yrotation
		JOINT rShin
		{
			OFFSET 2.041588 -20.007561 0.000000 
			CHANNELS 3 Xrotation Zrotation Yrotation
			JOINT rFoot
			{
				OFFSET 0.000000 -19.190928 -1.224953 
				CHANNELS 3 Xrotation Yrotation Zrotation
				End Site
				{
					OFFSET 0.000000 -2.449906 4.627600 
				}
			}
		}
	}
}
MOTION
Frames: 18
Frame Time: 0.033333
-2.019962 9.776078 -24.958740 -70.205086 1.894531 -5.322266 0.000000 0.000000 0.000000 -7.968749 -0.322266 6.464795 67.919922 -5.898438 -0.908203 -14.365233 2.783203 9.853989 26.181643 29.990236 9.458009 -83.857422 -3.808594 -10.829959 -79.482422 -44.199219 93.610321 -15.390624 7.343750 -57.645241 -17.509766 -30.000000 13.374024 79.111328 11.298828 80.714806 63.886723 -32.255863 79.419273 26.650391 -21.201174 -79.114861 -14.413905 19.901127 23.503838 28.348518 -3.433758 -1.838274 5.699000 9.629208 -30.711123 -26.768642 -4.920521 0.595783 40.744747 1.884467 3.094011 5.284088 9.383259 35.608265 
-1.911119 11.273936 -25.721718 -82.675781 4.775391 -10.995280 0.000000 0.000000 0.000000 -0.468750 -2.402344 5.917970 46.220703 -11.269532 -1.123046 -13.310547 5.283204 11.103515 38.964844 28.730467 2.099608 -86.396484 -7.802735 -9.552109 -78.027344 -35.107422 94.175537 -14.521484 -1.406250 -53.867428 -19.462891 -30.000000 10.190431 90.068359 20.830080 82.451172 48.642578 -34.755859 64.126656 25.390623 -22.148438 -78.242188 -2.979903 19.017826 24.206659 39.899891 -6.029190 -3.081037 5.455289 13.098042 -17.655935 -12.084241 -9.956217 -1.496812 40.409481 1.757662 2.971286 2.866571 0.128243 21.989651 
-2.116402 11.383515 -26.645323 -79.091797 4.560547 -12.997271 0.000000 0.000000 0.000000 -5.527344 -0.625000 6.376954 28.183592 -10.712891 -0.937500 -24.990232 7.041016 10.850807 39.873047 27.402342 2.324217 -86.210938 -9.238281 -9.562113 -88.691406 -16.337891 73.847656 -18.320313 -1.660156 -51.601711 -15.849609 -30.000000 12.709965 90.585938 23.730467 81.962891 42.519527 -52.792969 43.291012 22.929686 -27.109375 -75.771484 -12.909042 21.904438 24.631514 49.263145 -2.816346 -2.882113 6.536217 -2.730640 -14.406435 -20.986237 -8.916162 -0.816167 46.060810 2.369791 3.648155 7.251053 -2.580513 30.764515 
-2.006741 11.212502 -27.343029 -74.169930 5.732421 -11.083984 0.000000 0.000000 0.000000 -11.972656 -0.166016 6.484375 18.583982 -9.277344 -0.771484 -30.390627 6.914062 9.091797 38.056641 29.990234 1.787110 -89.335938 -10.927735 -8.195210 -93.164063 -0.302734 56.884819 -22.119143 -2.080078 -49.609375 -16.826172 -30.000000 11.640626 88.837891 23.115234 81.458916 51.220703 -75.283203 53.544926 29.121096 -18.154299 -76.790154 -24.821054 19.467222 21.843102 51.273163 2.917800 -1.564783 8.009286 -15.969334 -15.393448 -31.939888 -11.463924 -1.036885 54.717583 3.896150 4.806237 9.241141 3.619134 36.759968 
-2.063291 11.675663 -27.744051 -78.154297 5.878907 -11.219702 0.000000 0.000000 0.000000 -10.087891 -0.136719 6.494117 16.425779 -8.701172 -0.722656 -29.736328 6.611328 9.941216 40.400391 29.990234 -1.616210 -92.324219 -14.746093 -6.826172 -90.351563 8.798828 45.554405 -26.894531 -6.337891 -45.870216 -19.970705 -30.000000 8.544924 87.001953 25.019529 80.361328 -69.296875 -93.994141 -63.720726 32.265625 -8.291017 -76.671333 -20.809685 16.639151 21.392094 45.721024 4.363668 -1.000363 6.231026 -16.348471 -19.031706 -30.637226 -13.473474 -1.740101 60.641781 2.695277 5.113489 7.609707 12.014769 30.628628 
-2.110261 12.253835 -28.228971 -83.427734 5.654297 -11.904297 0.000000 0.000000 0.000000 -6.201171 -0.761719 6.347526 16.455078 -7.060547 -0.606669 -29.345703 6.259766 10.577238 41.933594 29.980467 -2.172849 -90.224609 -17.988281 -7.590907 -91.591797 14.775392 38.330074 -32.001953 -11.748047 -40.595703 -23.876953 -30.000000 6.079103 79.648438 28.720707 76.728516 20.322271 -94.453125 23.115202 31.689455 -4.902344 -76.006691 -11.385671 14.654525 21.668678 37.854599 2.051760 -1.029272 3.758053 -7.987142 -19.843454 -22.895477 -14.371785 -2.448845 57.235455 0.576109 4.340269 6.434239 14.790612 29.267746 
-2.318229 12.422867 -28.642918 -85.253906 4.755859 -14.130858 0.000000 0.000000 0.000000 -4.238281 -0.166016 6.455079 13.066406 -6.298829 -0.528415 -30.312500 6.845703 11.202336 44.101563 28.613279 -1.689452 -84.521484 -21.445311 -9.785156 -93.369141 21.367188 35.664066 -34.814449 -16.787109 -35.686409 -26.132814 -30.000000 4.921875 72.714844 32.373047 73.095703 64.179710 -98.769531 66.943245 30.527346 -2.832031 -75.518059 -4.629328 15.496475 22.551756 30.074638 -2.043206 -1.626503 3.441174 0.336383 -23.379112 -17.983320 -12.477018 -2.050083 50.809090 -1.818597 3.179884 3.752228 12.062024 30.041029 
-2.322168 12.263819 -28.866520 -85.712891 4.921875 -13.671874 0.000000 0.000000 0.000000 -2.890625 -0.722656 6.318359 7.783203 -5.234375 -0.439453 -32.978516 5.703125 8.876953 44.882813 26.113283 -0.390625 -79.531250 -26.816406 -11.645030 -94.589844 29.423830 38.237389 -36.347652 -18.193357 -33.743282 -29.501953 -30.000000 2.509765 66.845703 33.427734 70.419922 -88.505859 -73.750000 -84.385155 29.589844 1.562500 -75.058327 -1.329154 13.579243 21.913715 22.968241 -2.354358 -1.277563 3.902672 2.029789 -28.595469 -13.229458 -14.293386 -2.809325 43.237190 0.429744 2.935382 1.933871 2.639793 29.863895 
-2.448179 11.883703 -28.819956 -85.986328 4.414062 -13.701172 0.000000 0.000000 0.000000 -1.503906 -0.966797 6.240070 5.439453 -4.531250 -0.380859 -34.335938 4.843750 7.832033 44.990234 26.123047 -0.722656 -74.960938 -30.058594 -13.403327 -92.011719 39.912109 39.026936 -38.046875 -18.691406 -32.333984 -30.732422 -29.999998 1.513672 62.587891 35.625004 68.072098 -69.003906 -59.560547 -64.727905 27.998049 10.361329 -74.002151 -0.128349 13.259254 21.816523 22.785973 -1.417057 -1.095840 2.913744 -2.055334 -29.283100 -9.108408 -15.199068 -3.271531 38.536907 0.869022 2.617064 2.854292 2.669013 36.230812 
-2.646503 11.760683 -28.679417 -88.632813 2.763672 -14.569840 0.000000 0.000000 0.000000 2.089844 -0.468750 6.279217 4.970703 -4.482422 -0.371094 -34.052734 5.214844 8.837891 44.990234 27.255859 -2.089844 -70.859375 -30.859375 -14.965945 -81.367188 50.859379 31.406248 -38.925785 -22.109375 -29.404295 -30.214844 -30.000000 1.826172 58.271484 37.822269 65.660286 -59.179688 -40.937496 -57.373051 26.748047 19.228516 -72.311241 5.601141 13.755556 22.148830 23.942198 -1.397607 -1.113422 2.367350 -6.351460 -28.450298 -1.738110 -15.016708 -3.468525 29.380136 2.533847 2.102723 11.823707 -2.400257 43.977486 
-2.747837 11.790986 -28.475611 -91.220703 1.152344 -15.243942 0.000000 0.000000 0.000000 5.341796 0.341797 6.376954 5.478516 -5.361329 -0.440366 -31.962894 6.718750 11.562500 45.000000 28.564451 -3.451935 -70.283203 -29.648441 -15.209908 -66.669922 58.603516 20.069790 -34.970703 -23.173830 -31.976503 -29.101561 -30.000000 2.290040 53.886715 38.134766 63.662109 -52.412109 -22.832033 -56.304806 27.089846 21.289063 -71.724968 14.465410 13.180352 21.686209 22.597086 -2.032041 -1.148245 2.322550 -8.229754 -25.753529 3.895474 -15.202485 -3.679232 23.258127 4.187183 1.899608 17.854549 -11.086273 51.331951 
-2.760291 11.813356 -28.376984 -91.962891 -0.009766 -15.664063 0.000000 0.000000 0.000000 6.699219 1.523438 6.601822 6.083984 -6.464844 -0.518678 -30.820313 7.509766 12.607421 44.990234 28.388670 -3.476562 -69.091797 -29.277346 -15.649307 -49.990234 60.917965 6.368420 -25.263672 -12.539062 -43.761887 -27.695313 -30.000000 3.002932 50.263668 36.953125 62.441406 -47.089848 -6.630859 -58.447266 27.783203 16.259766 -72.732384 20.099016 13.152790 21.347214 17.347919 -2.823900 -0.993241 4.218780 -5.538936 -30.120182 3.944876 -14.863632 -3.558449 24.736753 4.587228 2.152530 17.135485 -12.094791 51.499252 
-2.583297 11.624844 -28.206497 -89.492188 1.435547 -13.310303 0.000000 0.000000 0.000000 4.033203 0.576172 6.474707 7.451172 -5.800781 -0.479503 -30.839844 5.878906 10.478515 45.000000 29.404295 -3.188389 -69.404297 -30.556641 -15.527344 -32.714840 61.591797 -4.520309 -22.539061 -6.855469 -47.276554 -27.871092 -30.000000 3.051758 46.611332 33.095707 61.948689 -41.503906 6.972657 -59.902344 27.431641 11.289063 -73.562538 15.709175 11.874259 21.086582 16.701448 -0.703143 -0.495161 6.457263 -3.575692 -38.593433 -0.556761 -17.027395 -4.188574 28.871655 5.739049 2.753722 15.708356 -10.375714 49.332565 
-2.577089 11.466249 -28.088198 -87.851563 2.246094 -10.937117 0.000000 0.000000 0.000000 2.167969 -0.625000 6.249893 9.404296 -3.994141 -0.341797 -30.498045 3.818359 8.389321 44.130859 29.990234 -3.540037 -70.332039 -31.484375 -15.166015 -13.935548 61.796875 -10.292971 -24.941406 -11.318358 -44.142540 -28.173828 -30.000000 3.349610 43.730469 30.039066 61.547859 -36.904297 15.605468 -60.859367 27.382813 9.677734 -73.789063 9.647408 12.548676 21.576674 22.303143 -0.118428 -0.741961 7.842683 0.156952 -34.941730 -2.870926 -17.553432 -4.302800 31.191206 5.292767 2.873783 14.696280 -6.494420 46.895111 
-2.617120 11.519735 -28.013973 -89.287109 2.226563 -10.146106 0.000000 0.000000 0.000000 3.515625 -1.386719 6.044685 10.283203 -2.500000 -0.244567 -29.521484 3.095703 8.076173 43.974609 29.990234 -4.414063 -71.113281 -31.132813 -14.868328 0.820313 60.136715 -12.597655 -28.095701 -14.638673 -40.871609 -28.662109 -30.000000 3.271485 42.656254 29.804688 61.166962 -36.591797 15.859373 -51.115952 23.574219 18.837893 -72.753906 10.324624 13.539696 21.999050 24.750643 -1.622560 -1.200691 7.816849 2.292730 -27.682892 -0.400733 -17.543400 -4.343066 30.381227 4.664406 2.653826 15.151863 -3.672878 47.466797 
-2.680454 11.625638 -27.995125 -90.937500 1.689453 -10.937499 0.000000 0.000000 0.000000 4.951172 -1.357422 6.005859 11.074218 -1.660156 -0.195313 -28.544924 3.183594 8.593749 44.492188 29.990236 -5.341797 -71.533203 -29.863281 -14.721659 6.806641 57.744141 -12.029743 -29.931641 -11.416017 -41.582031 -28.398438 -30.000000 3.496094 44.287106 31.503906 61.386723 -40.380859 8.789063 -34.111324 26.474609 23.388672 -71.650391 13.924926 15.038748 22.556917 23.774929 -4.345457 -1.746167 8.528348 5.924248 -30.610838 2.538092 -16.675072 -4.140343 28.070326 4.294052 2.385827 16.710852 -3.193190 45.644424 
-2.669103 11.607697 -28.036713 -90.830078 1.640625 -11.327847 0.000000 0.000000 0.000000 4.765625 -1.220703 6.044713 11.542970 -1.435547 -0.166260 -28.066404 3.281250 8.291575 44.492188 29.990236 -5.000000 -72.148445 -29.638670 -14.492187 6.337891 58.134766 -4.541016 -35.839844 -16.220703 -35.256634 -27.919922 -30.000000 3.852541 46.171879 32.197266 62.007156 -42.382813 3.183594 -25.224609 31.230469 22.500002 -71.617355 15.904584 15.467930 22.695749 21.311506 -6.054994 -1.890922 9.547940 10.684984 -36.470303 3.494424 -16.781794 -4.215767 25.664656 4.801040 2.243218 20.025921 -3.571184 44.588573 
-2.646275 11.513050 -28.049847 -90.449219 1.523438 -11.093490 0.000000 0.000000 0.000000 4.921875 -0.751953 6.142579 10.732421 -2.343750 -0.244141 -28.271486 3.935547 8.017578 44.169922 29.990234 -3.779297 -71.796883 -30.722658 -14.619141 4.990234 58.095703 2.950694 -40.273434 -17.910156 -31.047922 -27.949217 -30.000000 3.666994 48.046875 31.630859 62.939457 -41.914063 3.339844 -29.570314 30.771484 20.312502 -72.167969 16.010073 15.857594 22.851494 20.478655 -6.663196 -1.960487 9.894202 12.786708 -35.527584 3.464190 -16.904877 -4.255533 24.710262 5.172538 2.218342 20.928587 -5.286223 42.954105 
